HIERARCHY
ROOT Hips
{
	OFFSET 0.000000 0.000000 0.000000 
	CHANNELS 6 Xposition Yposition Zposition Yrotation Zrotation Xrotation 
	JOINT Lumbar
	{
		OFFSET 0.000000 0.000000 0.000000 
		CHANNELS 3 Zrotation Xrotation Yrotation
		JOINT Neck
		{
			OFFSET 0.000000 0.445665 0.000000 
			CHANNELS 3 Zrotation Xrotation Yrotation
			End Site
			{
				OFFSET 0.000000 0.227535 0.000000 
			}
		}
		JOINT RightShoulder
		{
			OFFSET 0.019635 0.377685 0.194865 
			CHANNELS 3 Zrotation Xrotation Yrotation
			JOINT RightElbow
			{
				OFFSET 0.000000 -0.243375 0.000000 
				CHANNELS 2 Zrotation Yrotation
				JOINT RightWrist
				{
					OFFSET 0.000000 -0.264825 0.000000 
					CHANNELS 2 Zrotation Xrotation
					End Site
					{
						OFFSET 0.006600 -0.176220 0.000990 
					}
				}
			}
		}
		JOINT LeftShoulder
		{
			OFFSET 0.019635 0.377685 -0.194865 
			CHANNELS 3 Zrotation Xrotation Yrotation
			JOINT LeftElbow
			{
				OFFSET 0.000000 -0.243375 0.000000 
				CHANNELS 2 Zrotation Yrotation
				JOINT LeftWrist
				{
					OFFSET 0.000000 -0.264825 0.000000 
					CHANNELS 2 Zrotation Xrotation
					End Site
					{
						OFFSET 0.006600 -0.176220 -0.000990 
					}
				}
			}
		}
	}
	JOINT RightHip
	{
		OFFSET 0.052140 -0.069960 0.075570 
		CHANNELS 3 Zrotation Xrotation Yrotation
		JOINT RightKnee
		{
			OFFSET 0.000000 -0.402270 0.000000 
			CHANNELS 1 Zrotation
			JOINT RightAnkle
			{
				OFFSET 0.000000 -0.404085 0.000000 
				CHANNELS 3 Zrotation Xrotation Yrotation
				End Site
				{
					OFFSET 0.204105 -0.089430 0.008415 
				}
			}
		}
	}
	JOINT LeftHip
	{
		OFFSET 0.052140 -0.069960 -0.075570 
		CHANNELS 3 Zrotation Xrotation Yrotation
		JOINT LeftKnee
		{
			OFFSET 0.000000 -0.402270 0.000000 
			CHANNELS 1 Zrotation
			JOINT LeftAnkle
			{
				OFFSET 0.000000 -0.404085 0.000000 
				CHANNELS 3 Zrotation Xrotation Yrotation
				End Site
				{
					OFFSET 0.204105 -0.089430 -0.008415 
				}
			}
		}
	}
}
MOTION
Frames: 17
Frame Time: 0.02
-0.00144 0.0001 -0.00056 175.4218 -46.16722 0.79403 56.00994 2.49752 2.54857 -4.2936 -9.1602 -0.2923 162.32771 -74.75525 -52.12841 13.03794 80.40286 -0.68361 -8.75 159.80932 70.32565 73.00621 9.49813 -74.52955 1.60799 9.13807 48.55412 -3.08909 -6.40351 -18.95675 -8.48209 -5.35361 -3.62306 52.70566 3.32669 -0.11773 -24.37038 -8.9099 5.38789 3.63905
-0.00063 7e-05 -0.00059 175.41162 -46.15853 0.7916 56.00554 2.48699 2.54496 -4.32817 -9.14853 -0.29211 161.95321 -74.78609 -52.42285 13.01911 80.40415 -0.66328 -8.74678 159.56379 70.35414 73.33815 9.43667 -74.51256 1.60689 9.09921 48.59979 -3.10633 -6.5457 -18.96848 -8.46848 -5.34645 -3.61639 52.73639 3.44383 0.37495 -24.36619 -8.85657 5.34106 3.609
0.00019 3e-05 -0.00061 175.4014 -46.14985 0.78918 56.00118 2.47646 2.54143 -4.36278 -9.13663 -0.29192 161.57925 -74.81697 -52.71692 13.00025 80.40547 -0.64287 -8.74346 159.3187 70.38269 73.66999 9.37531 -74.49561 1.60588 9.06031 48.64538 -3.12352 -6.68738 -18.98018 -8.45491 -5.33931 -3.60974 52.76706 3.56065 0.86635 -24.36203 -8.8034 5.29435 3.57904
0.00099 0 -0.00064 175.39123 -46.14118 0.78676 55.9968 2.46596 2.53785 -4.39726 -9.12496 -0.29173 161.20587 -74.84773 -53.0105 12.98147 80.40675 -0.62258 -8.74022 159.07389 70.4111 74.00106 9.31403 -74.47866 1.6048 9.02154 48.69093 -3.1407 -6.82912 -18.99187 -8.44134 -5.33217 -3.60309 52.7977 3.67744 1.35755 -24.35785 -8.75024 5.24767 3.54909
0.00181 -3e-05 -0.00066 175.38115 -46.13251 0.78431 55.99236 2.45547 2.53416 -4.43166 -9.11359 -0.29154 160.832 -74.87841 -53.30434 12.96273 80.40803 -0.60242 -8.73712 158.8287 70.43943 74.33187 9.25269 -74.4617 1.60357 8.98288 48.73652 -3.15794 -6.97137 -19.00359 -8.42774 -5.32502 -3.59642 52.82837 3.79452 1.84992 -24.35365 -8.69693 5.20086 3.51905
0.00262 -6e-05 -0.00068 175.37061 -46.12379 0.78196 55.9882 2.44485 2.53093 -4.46675 -9.1006 -0.29135 160.4578 -74.90973 -53.59892 12.94362 80.40946 -0.58148 -8.73335 158.58381 70.46846 74.66585 9.19129 -74.4448 1.60301 8.94348 48.78211 -3.17504 -7.11185 -19.01525 -8.41424 -5.31792 -3.58981 52.85902 3.91078 2.33923 -24.34955 -8.64405 5.15438 3.48924
0.00343 -9e-05 -0.00071 175.361 -46.11519 0.77941 55.98346 2.43452 2.52682 -4.50032 -9.09094 -0.29115 160.08511 -74.93966 -53.89144 12.92532 80.41046 -0.56214 -8.73093 158.33874 70.49594 74.99308 9.13011 -74.4277 1.60115 8.90561 48.82766 -3.19238 -7.25575 -19.02701 -8.40054 -5.31071 -3.58308 52.88971 4.02859 2.83419 -24.34525 -8.59037 5.10729 3.45901
0.00424 -0.00013 -0.00073 175.35056 -46.10645 0.77707 55.97928 2.4239 2.52349 -4.53546 -9.0781 -0.29097 159.71026 -74.97102 -54.1863 12.90619 80.41208 -0.54131 -8.72723 158.09354 70.52507 75.32656 9.06867 -74.41097 1.60042 8.86631 48.87323 -3.20951 -7.39646 -19.03868 -8.38704 -5.3036 -3.57647 52.92034 4.14494 3.3239 -24.34114 -8.53742 5.06077 3.42917
0.00505 -0.00016 -0.00076 175.33899 -46.09767 0.77488 55.97572 2.41301 2.52126 -4.57188 -9.06172 -0.29081 159.33554 -75.00359 -54.4825 12.88633 80.41359 -0.51868 -8.72209 157.84923 70.55538 75.66788 9.00706 -74.39392 1.60136 8.82529 48.91892 -3.22634 -7.53348 -19.05022 -8.37374 -5.29661 -3.56998 52.95099 4.25965 3.8076 -24.33725 -8.48534 5.01489 3.39978
0.00586 -0.00019 -0.00079 175.33355 -46.08952 0.7715 55.96838 2.40392 2.51313 -4.59903 -9.06674 -0.29052 158.96839 -75.02757 -54.76643 12.87154 80.41314 -0.50647 -8.72561 157.60292 70.5764 75.96473 8.94687 -74.37641 1.59356 8.79426 48.96421 -3.24478 -7.69239 -19.06248 -8.35916 -5.28892 -3.56272 52.98179 4.38426 4.32711 -24.33204 -8.42819 4.96518 3.36774
0.00667 -0.00022 -0.0008 175.31541 -46.0798 0.77084 55.96914 2.39085 2.51714 -4.64695 -9.026 -0.29051 158.58004 -75.0707 -55.07909 12.84552 80.41845 -0.47228 -8.71065 157.35887 70.61858 76.35485 8.88344 -74.36136 1.60364 8.7421 49.01014 -3.25989 -7.80468 -19.07322 -8.34734 -5.28275 -3.55712 53.01213 4.48767 4.77022 -24.32965 -8.38181 4.92362 3.34134
0.00746 -0.00025 -0.00075 175.26006 -46.06742 0.77609 55.99137 2.36833 2.55743 -4.74266 -8.86348 -0.29117 158.17012 -75.16036 -55.4536 12.79106 80.42458 -0.37647 -8.64489 157.13205 70.70854 77.00979 8.81238 -74.34029 1.66636 8.63029 49.05948 -3.26526 -7.79153 -19.07996 -8.34262 -5.28037 -3.55586 53.04229 4.53508 5.00865 -24.3349 -8.36455 4.90397 3.33017
0.00824 -0.00028 -0.00067 175.19233 -46.05307 0.78437 56.02179 2.34154 2.60942 -4.86107 -8.65433 -0.29216 157.72838 -75.27165 -55.86377 12.72385 80.438 -0.25846 -8.55983 156.90207 70.82295 77.75764 8.73744 -74.32362 1.74532 8.49648 49.10911 -3.26745 -7.73133 -19.08518 -8.34073 -5.27957 -3.5563 53.07173 4.5608 5.16945 -24.34301 -8.35818 4.89256 3.32471
0.00903 -0.0003 -0.0006 175.13185 -46.03864 0.79227 56.04908 2.31575 2.65401 -4.97496 -8.464 -0.293 157.28206 -75.37531 -56.26405 12.66221 80.45949 -0.15193 -8.48461 156.6706 70.93126 78.45608 8.66399 -74.31388 1.81586 8.37521 49.15759 -3.2714 -7.69075 -19.09095 -8.33789 -5.27833 -3.55612 53.10087 4.59506 5.36252 -24.34984 -8.34714 4.87766 3.31681
0.00982 -0.00033 -0.00054 175.06471 -46.02864 0.79592 56.07427 2.29395 2.70712 -5.06389 -8.28347 -0.2937 156.93146 -75.46442 -56.62269 12.60568 80.43814 -0.04103 -8.40794 156.4653 71.0132 79.18142 8.59334 -74.26831 1.89512 8.24763 49.21056 -3.27379 -7.65659 -19.09715 -8.33377 -5.27599 -3.55535 53.1329 4.63487 5.5681 -24.3565 -8.33498 4.86172 3.30828
0.01061 -0.00036 -0.00046 175.00824 -46.00856 0.80919 56.10529 2.26278 2.74565 -5.21084 -8.07163 -0.29496 156.35464 -75.59564 -57.09536 12.53024 80.50119 0.06797 -8.32579 156.18741 71.16245 79.87729 8.51386 -74.29607 1.95468 8.12237 49.25404 -3.27897 -7.59907 -19.10228 -8.33281 -5.27621 -3.55614 53.15844 4.65794 5.72926 -24.36428 -8.32769 4.84987 3.30241
0.0114 -0.0004 -0.00032 174.98682 -45.96441 0.84803 56.15444 2.20702 2.73759 -5.50617 -7.78356 -0.29579 155.34832 -75.78448 -57.70733 12.45244 80.8433 0.13438 -8.26715 155.87521 71.43978 80.42768 8.42956 -74.54195 1.98886 8.05941 49.27302 -3.29015 -7.47819 -19.10332 -8.34136 -5.28405 -3.5615 53.16899 4.64067 5.78647 -24.37391 -8.33158 4.84764 3.30269
